<svg id="Capa_1" height="512" width="512" xmlns="http://www.w3.org/2000/svg"><path d="M438.296 211.946C425.381 214.294 416 225.541 416 238.667v24.659c0 13.13 9.39 24.381 22.308 26.73l2.998.545c-13.666 73.358-69.951 131.912-142.101 148.896-1.837-13.461-13.334-23.497-26.92-23.497h-32.573c-13.585 0-25.081 10.033-26.916 23.493-5.338 39.145 24.767 66.473 57.522 64.599 126.228-7.221 227.22-108.494 233.84-235.01 1.802-34.424-28.265-63.972-65.862-57.136z" fill="#6c7a88"/><path d="M270.319 504.092c126.228-7.221 227.22-108.494 233.84-235.01a55.377 55.377 0 00-6.587-29.272c-12.807 2.866-22.653 13.964-23.372 27.706-5.831 111.425-94.217 200.255-205.594 206.626-13.726.785-24.759 10.684-27.579 23.48a55.312 55.312 0 0029.292 6.47z" fill="#596775"/><path d="M475.438 186.93l7.545-13.616a7.5 7.5 0 00-2.926-10.195c-3.016-1.671-6.682-1.037-8.985 1.313C438.187 66.779 346.348 0 241.874 0 177.267 0 116.527 25.162 70.843 70.851S0 177.286 0 241.899c0 54.995 17.985 106.819 52.01 149.871 33 41.754 79.442 71.848 130.769 84.741 9.777 2.455 19.871 4.077 30.728 4.942a61.634 61.634 0 007.813 10.518C233.195 504.816 249.761 512 267.233 512c1.214 0 2.433-.035 3.654-.105 62.954-3.601 122.172-30.24 166.745-75.011 44.6-44.799 70.98-104.195 74.28-167.244 1.014-19.369-6.73-37.803-21.245-50.575-14.421-12.689-33.92-17.926-53.484-14.367-16.494 2.999-28.466 17.348-28.466 34.117v24.675c0 15.208 9.845 28.426 23.98 32.995-14.758 64.79-63.99 116.383-128.036 134.186-5.15-12.922-17.826-21.911-32.235-21.911h-32.591c-17.258 0-32.03 12.896-34.361 29.995-1.282 9.405-.737 18.505 1.489 26.97-7.128-.861-13.92-2.102-20.531-3.762C85.495 436.609 15 346.117 15 241.899 15 116.787 116.775 15 241.874 15c97.691 0 183.603 62.243 214.695 153.368a7.497 7.497 0 00-4.941 13.94l13.356 7.405a9.444 9.444 0 005.474.323c2.821-.686 4.458-2.481 4.98-3.106zm21.494 81.926C490.497 391.842 392.95 489.888 270.03 496.92c-14.315.802-28.05-4.698-37.697-15.132-9.884-10.691-14.144-25.254-11.996-41.007 1.323-9.704 9.706-17.022 19.499-17.022h32.591c9.667 0 17.947 7.135 19.432 16.655v3.362c0 4.143 3.357 7.5 7.5 7.5 3.484 0 6.405-2.379 7.247-5.599 34.706-9.246 66.143-27.855 91.204-54.065 25.076-26.224 42.249-58.482 49.908-93.606 3.177-.872 5.514-3.772 5.514-7.226 0-4.143-3.357-7.5-7.5-7.5h-3.52l-2.334-.425a19.674 19.674 0 01-16.161-19.367v-24.675c0-9.516 6.792-17.658 16.149-19.359 15.254-2.769 29.773 1.088 40.891 10.871 11.052 9.726 16.948 23.769 16.175 38.531z"/><path d="M380.128 78.377a7.5 7.5 0 00-10.606.001L79.368 368.562a7.5 7.5 0 1010.607 10.605L380.129 88.984a7.501 7.501 0 00-.001-10.607zm-272.617 94.901L66.073 209.49c-5.205 4.549-1.977 13.156 4.938 13.156h50.026c4.144 0 7.504-3.398 7.504-7.544a7.504 7.504 0 00-7.504-7.504H91.074l26.335-22.985c22.539-19.673 8.637-57.065-21.385-57.065-30.763 0-41.215 40.045-24.994 40.045a7.505 7.505 0 007.504-7.505c0-9.645 7.846-17.492 17.49-17.492 16.088 0 23.645 20.06 11.487 30.682zm40.443-26.665l-15.991 46.055c-1.691 4.873 1.933 9.966 7.089 9.966h37.499c-.002 12.85-.645 14.964 2.207 17.814 4.72 4.724 12.841 1.339 12.841-5.326v-12.488h12.469a7.503 7.503 0 007.504-7.505 7.502 7.502 0 00-7.504-7.543h-12.469l-.039-52.521a7.504 7.504 0 00-15.008.006v52.514h-26.917c.155-.446 12.413-35.648 12.534-36.105 2.66-10.124-11.138-13.733-14.215-4.867zm128.315 195.288a7.46 7.46 0 003.342.792c2.751 0 5.4-1.521 6.713-4.15l39.982-80.104a7.496 7.496 0 00-6.707-10.845h-45.956c-4.14 0-7.496 3.356-7.496 7.497s3.356 7.497 7.496 7.497h33.836l-34.568 69.259a7.494 7.494 0 003.358 10.054z"/></svg>