<svg version="1.1" id="Capa_1" xmlns="http://www.w3.org/2000/svg" x="0" y="0" viewBox="0 0 512 512" xml:space="preserve"><path d="M401.756 0H280.64l-59.883 119.766h-35.659V59.883H95.273v61.778c-25.799 6.664-44.912 30.136-44.912 57.988v272.468c0 33.02 26.864 59.883 59.883 59.883h291.513c33.02 0 59.883-26.864 59.883-59.883V59.883C461.639 26.864 434.776 0 401.756 0zM125.214 89.825h29.942v29.941h-29.942V89.825zm306.485 362.292h-.001c0 16.51-13.432 29.942-29.942 29.942H110.244c-16.51 0-29.941-13.432-29.941-29.942V179.649c0-16.51 13.432-29.942 29.941-29.942h129.019l59.883-119.766h102.612c16.51 0 29.942 13.432 29.942 29.942v392.234z"/><path d="M317.651 59.883l-44.912 89.825h129.019V59.883h-84.107zm54.164 59.883h-50.63l14.971-29.941h35.659v29.941zm-27.029 251.015V260.486l52.846-55.547-21.692-20.638-52.545 55.231H191.298L135.8 184.034l-21.172 21.172 55.498 55.498v109.859l-55.498 55.498 21.172 21.172 55.498-55.498h132.096l52.545 55.231 21.692-20.638-52.845-55.547zm-29.942-8.988H200.068v-92.32h114.776v92.32z"/></svg>