<svg xmlns="http://www.w3.org/2000/svg" version="1.1" id="Layer_1" x="0" y="0" viewBox="0 0 486.68 486.68" xml:space="preserve" width="512" height="512"><path d="M394.355 72.16h-17.01c-3.88-14.66-17.25-25.5-33.12-25.5h-14V45c0-24.82-20.18-45-45-45h-34.49c-24.82 0-45 20.18-45 45v1.66h-14.01c-18.89 0-34.25 15.36-34.25 34.25v54.5c0 18.89 15.36 34.25 34.25 34.25h14.01v272.02c0 24.82 20.18 45 45 45h34.49c24.82 0 45-20.18 45-45V169.66h14c15.87 0 29.24-10.84 33.12-25.5h17.01c17.32 0 31.42-14.1 31.42-31.42v-9.17c0-17.32-14.1-31.41-31.42-31.41zm-202.63 67.5a4.26 4.26 0 01-4.25-4.25v-54.5a4.26 4.26 0 014.25-4.25h87.4v63h-87.4zm108.5 302.02c0 8.27-6.73 15-15 15h-34.49c-8.28 0-15-6.73-15-15V169.66h64.49v272.02zm0-395.02h-64.49V45c0-8.27 6.72-15 15-15h34.49c8.27 0 15 6.73 15 15v1.66zm48.25 88.75a4.26 4.26 0 01-4.25 4.25h-35.1v-63h35.1a4.26 4.26 0 014.25 4.25v54.5zm47.3-22.67c0 .78-.64 1.42-1.42 1.42h-15.88v-12h15.88c.78 0 1.42.63 1.42 1.41v9.17z"/><path d="M267.975 429.34c8.29 0 15-6.72 15-15v-201c0-8.28-6.71-15-15-15-8.28 0-15 6.72-15 15v201c0 8.28 6.72 15 15 15zM101.886 51.507H74.405c-7.456 0-13.5 6.044-13.5 13.5v66c0 7.456 6.044 13.5 13.5 13.5s13.5-6.044 13.5-13.5v-12.902h13.981c18.361 0 33.299-14.938 33.299-33.299s-14.937-33.299-33.299-33.299zm0 39.597H87.905V78.507h13.981c3.474 0 6.299 2.825 6.299 6.299s-2.825 6.298-6.299 6.298zm19.799 175.914c-7.456 0-13.5 6.044-13.5 13.5v23.974L85.38 272.656c-7.612-10.629-24.475-5.235-24.475 7.861v66.001c0 7.456 6.044 13.5 13.5 13.5s13.5-6.044 13.5-13.5v-23.974l22.806 31.835c7.617 10.634 24.475 5.263 24.475-7.861v-66.001c-.001-7.455-6.045-13.499-13.501-13.499zM101.51 374.773H74.405c-7.456 0-13.5 6.044-13.5 13.5v66c0 7.456 6.044 13.5 13.5 13.5h27.105c18.568 0 33.675-15.106 33.675-33.675v-25.65c0-18.568-15.106-33.675-33.675-33.675zm6.675 59.326a6.682 6.682 0 01-6.675 6.675H87.905v-39h13.605a6.682 6.682 0 016.675 6.675v25.65zm-6.299-274.837H74.405c-7.456 0-13.5 6.044-13.5 13.5v66.001c0 7.456 6.044 13.5 13.5 13.5s13.5-6.044 13.5-13.5V225.86h4.108l19.615 21.907c4.974 5.555 13.508 6.026 19.063 1.053 5.555-4.974 6.026-13.508 1.053-19.063l-9.637-10.764c7.944-6.091 13.08-15.671 13.08-26.433-.002-18.36-14.939-33.298-33.301-33.298zm0 39.598H87.905v-12.599h13.981c3.474 0 6.299 2.826 6.299 6.3s-2.825 6.299-6.299 6.299zm64.502 25h9.5c6.352 0 11.5-5.148 11.5-11.5s-5.148-11.5-11.5-11.5h-9.5c-6.352 0-11.5 5.148-11.5 11.5s5.149 11.5 11.5 11.5zm9.5 102.647c6.352 0 11.5-5.148 11.5-11.5s-5.148-11.5-11.5-11.5h-9.5c-6.352 0-11.5 5.148-11.5 11.5s5.148 11.5 11.5 11.5h9.5zm3.412 81.928h-9.5c-6.352 0-11.5 5.148-11.5 11.5s5.148 11.5 11.5 11.5h9.5c6.352 0 11.5-5.148 11.5-11.5s-5.149-11.5-11.5-11.5z"/></svg>