<svg id="Capa_1" height="512" viewBox="0 0 510.303 510.303" width="512" xmlns="http://www.w3.org/2000/svg"><g id="XMLID_959_"><path id="XMLID_978_" d="M255.151 60C147.545 60 60 147.545 60 255.151s87.545 195.151 195.151 195.151 195.151-87.545 195.151-195.151S362.758 60 255.151 60zm0 360.303C164.087 420.303 90 346.216 90 255.151S164.087 90 255.151 90s165.151 74.087 165.151 165.151-74.086 165.152-165.151 165.152z"/><path id="XMLID_987_" d="M435.57 74.732C387.379 26.54 323.305 0 255.151 0S122.924 26.54 74.732 74.732 0 186.998 0 255.151 26.54 387.379 74.732 435.57c48.191 48.192 112.266 74.732 180.419 74.732s132.228-26.54 180.419-74.732c48.192-48.191 74.732-112.266 74.732-180.419S483.763 122.924 435.57 74.732zM255.151 480.303C131.003 480.303 30 379.3 30 255.151S131.003 30 255.151 30s225.151 101.003 225.151 225.151S379.3 480.303 255.151 480.303z"/><path id="XMLID_989_" d="M239.319 164h68.091v50.553h-24.284v49.482h-35.791v50.633h-34.442v-37.935h-30V378h30v-33.332h64.442v-50.633h35.791v-49.482h24.284V134h-98.091z"/></g></svg>