<svg version="1.1" id="Capa_1" xmlns="http://www.w3.org/2000/svg" x="0" y="0" width="99.088" height="99.087" xml:space="preserve"><path d="M15.078 51.768c-5.832 0-10.562 4.728-10.562 10.562 0 .451.037.891.094 1.328.655 5.205 5.086 9.233 10.468 9.233 5.526 0 10.058-4.25 10.516-9.66.024-.298.045-.597.045-.901 0-5.834-4.728-10.562-10.561-10.562zm-3.971 7.571l1.617 1.618a2.667 2.667 0 00-.287.697h-2.28a4.915 4.915 0 01.95-2.315zm-.96 3.69h2.298c.064.245.16.475.287.688l-1.621 1.621a4.982 4.982 0 01-.964-2.309zm4.245 4.226a4.933 4.933 0 01-2.301-.956l1.611-1.611c.213.125.445.215.689.277l.001 2.29zm0-7.564a2.658 2.658 0 00-.701.292l-1.615-1.617a4.935 4.935 0 012.316-.958v2.283zm1.374-2.282c.864.12 1.653.454 2.316.959l-1.616 1.616a2.651 2.651 0 00-.7-.292v-2.283zm0 9.844v-2.288c.244-.062.475-.155.688-.279l1.612 1.612a4.937 4.937 0 01-2.3.955zm3.283-1.911l-1.626-1.627c.128-.214.23-.44.295-.687h2.28a4.957 4.957 0 01-.949 2.314zm-1.328-3.687a2.723 2.723 0 00-.287-.697l1.618-1.618c.5.664.831 1.452.949 2.315h-2.28zm62.565-9.887c-5.831 0-10.562 4.728-10.562 10.562 0 .451.037.891.095 1.328.655 5.205 5.085 9.233 10.467 9.233 5.527 0 10.06-4.25 10.517-9.66.023-.298.045-.597.045-.901 0-5.834-4.728-10.562-10.562-10.562zm-3.971 7.571l1.618 1.618a2.672 2.672 0 00-.289.697h-2.278a4.914 4.914 0 01.949-2.315zm-.959 3.69h2.298c.062.245.16.475.287.688l-1.622 1.621a4.98 4.98 0 01-.963-2.309zm4.244 4.226a4.938 4.938 0 01-2.301-.956l1.612-1.611c.212.125.444.215.688.277v2.29h.001zm0-7.564c-.25.063-.482.164-.7.292l-1.615-1.617a4.936 4.936 0 012.315-.958v2.283zm1.375-2.282c.865.12 1.652.454 2.315.959l-1.614 1.616a2.7 2.7 0 00-.701-.292v-2.283zm0 9.844v-2.288c.244-.062.476-.155.688-.279l1.613 1.612a4.945 4.945 0 01-2.301.955zm3.283-1.911l-1.627-1.627c.129-.214.23-.44.297-.687h2.278a4.935 4.935 0 01-.948 2.314zm-1.328-3.687a2.723 2.723 0 00-.287-.697l1.619-1.618c.5.664.83 1.452.947 2.315H82.93zm-7.016-35.457l-28.335.357a1.538 1.538 0 00.001 3.077h.038l28.335-.357a1.54 1.54 0 001.52-1.558c-.012-.85-.733-1.551-1.559-1.519zM64.707 62.041H31.253a1.538 1.538 0 000 3.078h33.454a1.538 1.538 0 000-3.078z"/><path d="M98.658 53.259a1.887 1.887 0 00-1.458-.688h-1.749l-1.777-19.458a2.062 2.062 0 00-2.086-1.875l-50.028.75a2.568 2.568 0 00-1.988.991l-6.631 8.523-21.714 1.345a3.823 3.823 0 00-2.926 1.668l-1.223 1.799s-2.094.737-2.655 1.201c-.487.403-1.456 2.069-1.456 2.069a.851.851 0 00-.059.884.85.85 0 00.757.46v1.896H1.858A1.859 1.859 0 000 54.682v3.424a2.305 2.305 0 002.305 2.305H3.54l3.183-8.782c.29-.8 1.05-1.333 1.9-1.333h11.11c.63 0 1.225.294 1.607.796l7.484 9.824h39.064l5.482-9.25a2.017 2.017 0 011.738-.99h10.201c.72 0 1.385.383 1.748 1.005l5.375 9.236h1.928a4.246 4.246 0 004.165-3.425l.524-2.666a1.876 1.876 0 00-.391-1.567zm-47.59-9.792H39.54v-3.541h-2.335l3.494-4.613a.809.809 0 01.633-.321l11.694-.174v5.108l-1.958 3.541zm19.063 0H57.699v-8.719l14.993-.223v6.38l-2.561 2.562zm6.407 0v-9l12.907-.192a.415.415 0 01.419.385l.606 8.807H76.538z"/></svg>