<svg version="1.1" id="Capa_1" xmlns="http://www.w3.org/2000/svg" x="0" y="0" viewBox="0 0 186.853 186.853" xml:space="preserve"><path d="M136.779 0H16.451C9.9 0 4.571 5.329 4.571 11.88v163.093c0 6.551 5.329 11.88 11.88 11.88h120.328c6.551 0 11.88-5.329 11.88-11.88V11.88C148.658 5.329 143.329 0 136.779 0zm-10.831 151.803H26.615a5 5 0 010-10h99.333a5 5 0 010 10zm-104.333-29a5 5 0 015-5h54.269a5 5 0 010 10H26.615a5 5 0 01-5-5zm104.333-19H26.615a5 5 0 010-10h99.333a5 5 0 010 10zm-104.333-29a5 5 0 015-5h79.34a5 5 0 010 10h-79.34a5 5 0 01-5-5zm104.333-19H26.615a5 5 0 010-10h99.333a5 5 0 010 10zm0-24H26.615a5 5 0 010-10h99.333a5 5 0 010 10zm56.333 18.584v121a5 5 0 01-5 5h-10.333a5 5 0 01-5-5v-121c0-.027.008-.052.008-.079a4.96 4.96 0 01.087-.89l.006-.03.003-.016 5.157-26.121a4.999 4.999 0 019.81 0l5.158 26.121.003.016.006.03c.058.296.082.594.087.89.001.027.008.052.008.079z"/></svg>