<svg version="1.1" id="Capa_1" xmlns="http://www.w3.org/2000/svg" x="0" y="0" width="524.938" height="524.938" xml:space="preserve"><path d="M437.696 439.551c-.746-3.465-2.607-6.07-5.594-7.822-3.232-1.73-6.469-1.982-9.695-.74l-1.859.74c-.998.246-2.484.625-4.475 1.121-1.994.496-4.283 1.047-6.896 1.676-2.613.625-5.654 1.236-9.137 1.867a225.327 225.327 0 01-10.998 1.678c-3.855.494-8.012.93-12.49 1.309-4.475.367-8.947.551-13.422.551-31.566 0-59.963-8.506-85.189-25.545-25.234-17.008-43.808-40.074-55.736-69.143h144.279c2.736 0 5.221-.932 7.461-2.797 2.232-1.867 3.598-4.168 4.1-6.904l8.947-41.75c.748-3.727 0-7.094-2.232-10.062-2.486-2.986-5.594-4.484-9.322-4.484H204.315c-.747-16.893-.747-29.94 0-39.144H386.25c6.715 0 10.686-3.219 11.928-9.682l8.947-42.509c.748-3.464-.129-6.702-2.613-9.682-2.232-2.986-5.348-4.474-9.32-4.474H220.717c12.424-27.846 31.065-49.707 55.924-65.625 24.854-15.906 52.938-23.856 84.254-23.856 3.477 0 7.143.116 10.998.361 3.85.263 7.455.569 10.814.931 3.354.379 6.578.74 9.688 1.12s5.9.814 8.391 1.31c2.479.496 4.658.93 6.523 1.297 1.867.379 3.293.685 4.291.93l1.486.379c3.227 1.003 6.213.686 8.947-.93 2.73-1.616 4.475-4.033 5.221-7.265l16.035-59.291c.746-3.219.373-6.206-1.121-8.941-2.232-2.986-4.725-4.847-7.453-5.593C411.844 2.871 387.739 0 362.389 0c-55.68 0-105.448 15.918-149.316 47.724-43.868 31.818-74.132 73.82-90.778 126.017H85.759c-3.482 0-6.34 1.108-8.574 3.348-2.24 2.24-3.36 5.098-3.36 8.58v42.498c0 3.482 1.12 6.334 3.36 8.58 2.234 2.24 5.092 3.348 8.574 3.348h24.982c-.747 11.94-.875 24.988-.374 39.145H85.759c-3.231 0-6.028 1.193-8.391 3.555-2.362 2.355-3.543 5.152-3.543 8.391v42.117c0 3.25 1.181 6.047 3.543 8.391 2.356 2.375 5.153 3.557 8.391 3.557h35.417c15.661 54.934 45.233 98.605 88.728 131.035 43.495 32.43 94.322 48.654 152.486 48.654 4.719 0 9.504-.117 14.352-.381 4.846-.244 9.375-.611 13.611-1.119a326.93 326.93 0 0012.49-1.678 304.25 304.25 0 0011.182-1.865 345.171 345.171 0 009.504-1.867c2.98-.611 5.648-1.297 8.018-2.057 2.355-.74 4.344-1.297 5.967-1.676 1.609-.367 2.918-.803 3.91-1.299l1.861-.379c2.734-.992 4.846-2.797 6.34-5.404 1.492-2.607 1.859-5.404 1.119-8.391l-13.048-59.273z"/></svg>