<svg version="1.1" id="Capa_1" xmlns="http://www.w3.org/2000/svg" x="0" y="0" width="48.999" height="49" xml:space="preserve"><path d="M40.215 26.977a2.623 2.623 0 01-.681-1.459 2.197 2.197 0 01-.033-.334c0-.526.158-1.017.426-1.431.23-.353.544-.641.912-.85.077-.043.149-.089.229-.125a2.621 2.621 0 011.062-.229c.1 0 .192.019.292.028a2.618 2.618 0 012.338 2.604c0 .105-.021.209-.029.311a2.627 2.627 0 01-2.602 2.32 2.592 2.592 0 01-1.914-.835zM8.162 22.906c-.075-.043-.149-.089-.229-.125a2.584 2.584 0 00-1.061-.229c-.1 0-.194.019-.291.029a2.62 2.62 0 00-2.341 2.603c0 .106.021.209.032.313a2.625 2.625 0 002.601 2.316 2.61 2.61 0 001.915-.841 2.61 2.61 0 00.681-1.458c.015-.109.035-.221.035-.334 0-.523-.16-1.016-.427-1.429a2.705 2.705 0 00-.915-.845zm-6.811.857a3.58 3.58 0 01-.534-1.867 3.615 3.615 0 013.532-3.61c.208-.192.426-.38.651-.563V9.406C5 6.974 7.488 5.07 10.663 5.07h27.673c3.176 0 5.662 1.904 5.662 4.336v8.316c.225.185.443.37.65.563a3.616 3.616 0 013.533 3.61c0 .686-.205 1.32-.535 1.866.026.238.061.475.061.716v5.969c0 .29-.234.524-.523.524h-10.07V20.184c0-2.066-2.506-3.684-5.706-3.684H17.591c-3.201 0-5.707 1.618-5.707 3.684v10.783H1.814a.523.523 0 01-.526-.523v-5.969c.002-.239.039-.475.063-.712zm37.691 3.414a3.67 3.67 0 003.087 1.691 3.685 3.685 0 003.674-3.588c0-.031.012-.064.012-.098A3.669 3.669 0 0044 22.028a3.654 3.654 0 00-1.578-.497c-.097-.009-.19-.029-.292-.029-.408 0-.794.082-1.166.206-.04.015-.083.023-.125.038a3.68 3.68 0 00-2.199 2.311 3.66 3.66 0 00-.195 1.126c0 .157.029.308.047.459.07.559.255 1.085.55 1.535zm-28.684-3.122a3.687 3.687 0 00-2.2-2.31c-.04-.015-.082-.025-.124-.039a3.665 3.665 0 00-1.165-.205c-.1 0-.194.021-.291.028A3.641 3.641 0 005 22.026a3.67 3.67 0 00-1.815 3.155c0 .033.009.062.009.1a3.683 3.683 0 003.675 3.584 3.676 3.676 0 003.087-1.689c.294-.451.478-.975.548-1.534.021-.153.047-.302.047-.459a3.595 3.595 0 00-.193-1.128zM6.58 11.94c0 .881.626 1.658 1.578 2.163.653.345 1.458.56 2.343.583 2.939-1.081 6.388-1.715 10.087-1.715h7.823c3.698 0 7.146.634 10.085 1.715.885-.023 1.689-.238 2.343-.583.955-.506 1.578-1.282 1.578-2.163V9.406c0-1.523-1.826-2.758-4.081-2.758H10.663c-2.254 0-4.083 1.234-4.083 2.758v2.534zm6.358 12.134v7.027h1.236V18.432c-.757.47-1.236 1.084-1.236 1.752v3.89zm21.887 0v7.027h1.235V20.184c0-.668-.479-1.282-1.235-1.752v5.642zm-9.8 1.579v5.448h1.396V17.553h-1.396v8.1zm2.452 0v5.448h1.396V17.553h-1.396v8.1zm2.448 0v5.448h1.397V17.553h-1.397v8.1zm2.45 0v5.448h1.396V17.943a6.708 6.708 0 00-1.396-.326v8.036zm-14.699 0v5.448h1.398V17.553h-1.398v8.1zm4.899 0v5.448h1.397V17.553h-1.397v8.1zm-2.449 0v5.448h1.397V17.553h-1.397v8.1zm-4.899 0v5.448h1.397V17.617a6.882 6.882 0 00-1.397.326v7.71zm33.248 6.241H.526a.525.525 0 00-.526.525v2.105c0 .29.236.523.526.523h47.947a.525.525 0 00.526-.523v-2.105a.522.522 0 00-.524-.525zm-38.382 4.014H2.725a.523.523 0 00-.525.523v4.867a2.636 2.636 0 002.631 2.631h3.158a2.633 2.633 0 002.632-2.631v-4.867a.526.526 0 00-.528-.523zm36.18 0h-7.366a.524.524 0 00-.527.523v4.867a2.637 2.637 0 002.634 2.631h3.155a2.636 2.636 0 002.634-2.631v-4.867a.53.53 0 00-.53-.523z"/></svg>