<svg id="Capa_1" height="512" viewBox="0 0 512.055 512.055" width="512" xmlns="http://www.w3.org/2000/svg"><path d="M135 270.027c51.715 0 98.08-29.119 120.794-75h35.419L315 171.241l23.787 23.787h42.426L405 171.241l29.106 29.106 77.948-65.319-71.601-60h-184.66c-22.711-45.881-69.076-75-120.794-75-74.439 0-135 60.561-135 135C0 209.467 60.561 270.027 135 270.027zm0-240c42.879 0 81.032 25.764 97.201 65.637l3.797 9.363h193.548l35.8 30-29.452 24.681L405 128.814l-36.213 36.213h-17.574L315 128.814l-36.213 36.213h-42.789l-3.797 9.363c-16.171 39.873-54.325 65.637-97.201 65.637-57.897 0-105-47.103-105-105s47.103-105 105-105zm294.488 253.687c-19.022 6.342-34.434 19.719-43.389 37.655l-22.788 45.528c-13.318-20.938-36.711-34.87-63.311-34.87h-69.019c-22.263-20.08-50.779-31.066-80.981-31.066s-58.713 10.987-80.976 31.066H0v180h90v-26.555h314.638l95.483-190.967-13.406-6.712c-17.904-8.963-38.231-10.413-57.227-4.079zM60 482.027H30v-120h30zm326.097-26.555H90V353.547c16.611-14.595 37.686-22.586 60-22.586 43.655 0 66.559 29.51 68.787 31.066H300c19.555 0 36.228 12.541 42.42 30H180v30h189.267l43.668-87.245c5.379-10.774 14.627-18.803 26.041-22.609 6.469-2.156 13.192-2.808 19.763-1.984z"/><path d="M135 180.027c24.813 0 45-20.187 45-45s-20.187-45-45-45-45 20.187-45 45 20.187 45 45 45zm0-60c8.271 0 15 6.729 15 15s-6.729 15-15 15-15-6.729-15-15 6.729-15 15-15z"/></svg>