<svg version="1.1" id="Capa_1" xmlns="http://www.w3.org/2000/svg" x="0" y="0" viewBox="0 0 512 512" xml:space="preserve"><path d="M254.991 212.339c35.355 0 64-28.645 64-64s-28.645-64-64-64-64 28.645-64 64 28.645 64 64 64zm0-85.333c11.791 0 21.333 9.542 21.333 21.333s-9.542 21.333-21.333 21.333c-11.791 0-21.333-9.542-21.333-21.333s9.542-21.333 21.333-21.333z" transform="translate(1 1)"/><path d="M227.229 396.518l8.681 17.362c7.863 15.726 30.305 15.723 38.164-.004l18.389-36.8c18.466-36.902 35.939-66.021 75.763-128.619l1.036-1.629a9207.456 9207.456 0 0012.042-18.961c14.956-23.623 23.02-50.992 23.02-79.527 0-89.032-77.35-158.521-166.786-148.343C170.99 7.588 116.35 60.832 107.14 127.122c-5.511 39.683 4.604 78.394 27.526 109.517 30.834 41.796 54.577 83.935 92.563 159.879zm-77.827-263.526c6.528-46.989 45.76-85.218 92.967-90.603 64.055-7.29 119.289 42.33 119.289 105.951 0 20.39-5.735 39.855-16.403 56.706-3.34 5.276-6.155 9.708-11.991 18.88l-1.036 1.629c-40.148 63.109-58.184 93.122-77.28 131.152-33.196-65.363-56.271-105.169-85.935-145.383-16.377-22.237-23.576-49.786-19.611-78.332z" transform="translate(1 1)"/><path d="M387.88 312.04c-11.464-2.719-22.961 4.371-25.68 15.835-2.719 11.464 4.371 22.962 15.835 25.68 57.212 13.567 90.298 35.274 90.298 50.773 0 29.478-94.949 64-213.333 64-118.398 0-213.333-34.518-213.333-64 0-15.508 33.053-37.209 90.236-50.773 11.464-2.719 18.553-14.217 15.834-25.681-2.719-11.464-14.217-18.553-25.681-15.833C47.205 329.796-1 361.445-1 404.329c0 64.804 115.134 106.667 256 106.667 140.853 0 256-41.865 256-106.667 0-42.885-48.235-74.531-123.12-92.289z" transform="translate(1 1)"/></svg>