<svg version="1.0" xmlns="http://www.w3.org/2000/svg" width="808" height="804" viewBox="0 0 606 603"><path d="M282 .7c-36.1 3.5-60.2 9-89.5 20.5C59 73.7-18.9 214.8 7.5 356.5c18.8 100.8 89.1 185.9 185 223.9 35.9 14.2 71 20.9 110.5 20.9 49 0 89-9.4 133.5-31.3 67.9-33.4 119.9-90.2 147-160.5 22.2-57.6 26.5-121.6 11.8-180-14-56.2-41.4-104-82.5-144.1C456.2 30.2 379.6-.6 301 .2c-8.5 0-17.1.3-19 .5zm52.5 3.8c93.9 10.5 176 62.8 224.2 143 6.4 10.6 13.3 23.7 13.8 26.4.2.9 1.9 5.8 3.9 10.9 10.9 28.5 17 59.9 18 93.7.6 19.1.3 19.3-1.9 1.5-2-15.7-4.8-29.3-9.1-44-3.6-12.5-9.9-29.9-11.4-31.4-2.3-2.3-2 1.1.9 10.3 26.1 81.7 14 169.7-33.3 241.6-43.1 65.6-111.6 110.1-189.7 123.4-68.7 11.8-142.1-3.5-200.4-41.6-33.2-21.8-65.6-54.3-84.7-85.3-15.8-25.6-22.2-40.4-29.3-67.4-7.3-27.6-10.2-54-9.1-82.1 1.1-27 2.2-31.7 2.4-9.5.2 30.3 3.3 51.9 11.7 80.3 4.4 14.6 13 36.8 19.2 49.1 2.4 4.8 4.2 9.4 3.9 10.2-.3.8 0 1.1 1 .7 2.8-1.1 1.3 1.5-1.6 2.7-4.6 1.9-4.6 3.1 0 1.5l4.1-1.4 2.2 3.7c9.8 16.9 25.5 37 41.2 52.7 44.5 44.5 102.4 71.9 166.4 78.6 14.6 1.5 52 .6 66.1-1.6 77-12 144.3-54.7 186.9-118.6l7.7-11.6 3.7 1.3c4.5 1.6 4.8 1 .7-1.1-3.2-1.7-4.2-4.2-1.2-3 1.3.5 1.4.3.5-.6-.9-.9.2-3.9 4.7-12.8 14.6-28.8 24.1-60.1 28.1-92.6 1.6-13.1 1.6-48.4 0-61-4.3-34-16.7-74.6-32.6-106.5-6.4-12.9-11.6-21.8-19.1-33l-4.5-6.5 4.7 4.9c12.4 13.3 29.6 39.2 39.6 59.3 5.5 11.3 7.8 14.5 7.8 10.9 0-2.3-6.6-17.1-14-31.3-27.2-52.5-71.1-95.7-124.1-122.3-61.5-30.9-130.6-38.8-196.8-22.4C130.6 49.4 50.8 129.7 25.5 234.5 13.2 285 15.2 339.3 31.1 388c8.2 24.8 23.7 59.3 35.2 77.7 3.2 5 9.3 14 13.8 20l8 10.8-12.8-13c-20.8-21.3-34.8-40.3-43.2-58.8-21-46.5-30.2-98.5-26.1-147.2C15.8 163 87 66.5 193 24c26.4-10.5 51.1-16.4 85.5-20.4 8.7-.9 44.4-.4 56 .9zM303 32.9c0 .4-5 27.8-11 60.7-6.1 33-15.8 85.7-21.6 117.2-5.8 31.6-10.3 57.9-10.1 58.6.6 1.5 14.1 9.8 14.4 8.8.1-.4 6.8-55.8 14.9-123.2 8-67.4 14.8-122.7 15-122.9.2-.2.7-.2 1 .2.3.3.8 59.2 1.1 130.9.2 71.7.5 130.6.6 131 .2.8 37.9-20 39.8-21.9.9-.9-2.7-23.2-30.6-192.6-4.1-25.2-7.5-46.3-7.5-46.8 0-2.3 27.4 0 47.9 4.2C396 45 434.6 62.7 467.2 87.7c25.7 19.7 50.5 47.8 67.7 76.6 6.1 10.1 16.7 32.2 20.1 41.7 1.3 3.6 2.6 6.9 3 7.5 1.2 1.6 4.7 13.2 7.4 24 15.1 61.4 7.5 126.8-21.3 184.3l-6.2 12.3-4.7-3.9c-4.6-3.8-83-68-129.6-106.2-13.1-10.7-30.6-25-38.7-31.8L350 280l-6.1 3c-3.3 1.7-5.9 3.5-5.7 4 .3.8 10.5 8.5 40.3 30.4 72.9 53.4 158 116.9 158 117.9 0 .7-.6 1.1-1.4.9-.7-.2-52.4-29.3-114.7-64.7L307 307.2l.2 23.5.3 23.5 46 17.2c25.3 9.5 76.5 28.6 113.7 42.6l67.6 25.3-3.6 5.9c-12.9 20.8-39.6 50.7-59.2 66.2-38.3 30.3-82.9 49.4-132 56.7-17.1 2.5-50.2 3-66.5 1-75.6-9.4-140.4-46.4-185.5-105.6-10.3-13.5-18.3-26.7-16.8-27.6.7-.4 35.1-12.7 76.3-27.4 41.3-14.7 92.3-33 113.5-40.5l38.5-13.8.3-23.6.2-23.7-2.7 1.5c-1.6.8-53.6 29.3-115.7 63.5S68.6 434 68.4 434c-3.2 0 14.3-12.8 94.4-68.7 52.1-36.4 98.2-68.6 102.4-71.5 4.3-2.9 7.7-5.5 7.7-5.8 0-1-17.3-10-18.4-9.6-.5.2-42.7 34.4-93.7 76S67.6 430 67.1 430c-2.7 0-18.1-37.6-23.6-57.5C12.7 260.4 56.9 142.1 154 76.8c33.4-22.4 76.5-38.4 116.8-43.3 12.4-1.5 32.2-1.9 32.2-.6z"/><path d="M299 141.9c0 1.6-2 34-4.5 72s-4.5 70.3-4.5 71.9c0 2.2.9 3.2 5 5.5l5 2.8v-77.5c0-42.7-.2-77.6-.5-77.6s-.5 1.3-.5 2.9zm17.8 155.7c-2.7 1.3-4.8 2.8-4.8 3.2.1.4 28.7 17.1 63.7 37.2 34.9 20.1 65.4 37.6 67.7 38.9 2.2 1.3 3.7 1.9 3.1 1.4-1.1-1.1-124.3-83.3-124.7-83.3-.2.1-2.4 1.2-5 2.6zm-53.8 16c-26 20.3-27.8 22-19 17.1 33-18.4 51.7-29.3 51.3-30-.5-.9-7.9-4.7-9-4.7-.4 0-10.9 7.9-23.3 17.6z"/></svg>