<svg id="Capa_1" height="512" width="512" xmlns="http://www.w3.org/2000/svg"><path d="M442.823 352.589c-15.095-28.427-49.995-40.094-79.147-25.876l-30.868 15.055c4.514 5.548 8.525 11.541 11.362 18.34 5.273 12.627 6.958 26.104 5.098 39.272zM241 121.001c0 61.135 45.886 112.542 105 120v-47.763c-17.422-6.213-30-22.707-30-42.237h30c0 8.276 6.724 15 15 15s15-6.724 15-15-6.724-15-15-15c-24.814 0-45-20.186-45-45 0-19.53 12.578-36.024 30-42.237V.001c-59.114 7.458-105 59.863-105 121z"/><path d="M346 91.001c0 8.276 6.724 15 15 15 24.814 0 45 20.186 45 45 0 19.53-12.578 36.024-30 42.237v47.763c59.114-7.458 105-58.865 105-120 0-61.137-45.886-113.542-105-121v48.763c17.422 6.213 30 22.707 30 42.237h-30c0-8.276-6.724-15-15-15s-15 6.723-15 15zm-210 30c0 66.273 53.725 120 120 120 4.863 0 9.485-.868 14.196-1.43C234.459 212.127 211 169.434 211 121.001s23.459-92.126 59.196-119.57C265.485.869 260.863.001 256 .001c-66.275 0-120 54.725-120 121z"/><path d="M165.196 1.431C160.485.869 155.863.001 151 .001c-66.275 0-120 54.725-120 121 0 66.273 53.725 120 120 120 4.863 0 9.485-.868 14.196-1.43C129.459 212.127 106 169.434 106 121.001c0-48.434 23.459-92.126 59.196-119.57zM0 301.001h60v180H0zm459.687 76.704l-146.689 73.354-104.399-40.137 10.752-28.008 92.065 35.391 4.984-11.792c9.809-23.207-1.344-49.944-24.736-59.302l-97.295-38.921c-27.025-10.811-58.382-9.551-84.417 3.462L90 321.725v124.437l132.162 53.461c29.912 11.968 62.124 15.33 94.777 9.765 17.4-2.965 34.116-9.282 49.902-17.175L512 419.126l-.002-9.827c-.086-26.307-28.782-43.36-52.311-31.594z"/></svg>