<svg xmlns="http://www.w3.org/2000/svg" width="2500" height="2500" viewBox="0 0 192.756 192.756"><g fill-rule="evenodd" clip-rule="evenodd"><path fill="#fff" d="M0 0h192.756v192.756H0V0z"/><path d="M52.118 74.733H11.734s-9.545.066-8.865 11.162l49.249 9.888v-3.266L8.764 86.686h43.354V74.733zM2.888 117.93h40.369s9.541-.066 8.86-11.162L2.888 96.879v.129l36.016 8.969H2.888v11.953zm.211-23.977l49.019 10.988v-3.265L8.974 94.875l-5.875-.922zm-.074-4.232l49.093 10.638v-3.267l-43.211-6.49-5.882-.881zm54.557-14.979h41.199v12.069H57.582V74.742zm55.492 12.127l4.852-12.127H137.9l5.153 12.178-29.979-.051zm31.875 4.454l11.264 26.7h-15.399l-7.492-14.566h-10.404l-7.49 14.566H57.582V91.389h41.199v12.068H74.228v2.498h29.963l7.133-14.632h33.625zm3.772-16.581h41.201v12.069h-41.201V74.742zm15.398 16.647h12.069v26.634h-12.069V91.389z"/></g></svg>