<svg version="1.1" id="Layer_1" xmlns="http://www.w3.org/2000/svg" x="0" y="0" viewBox="0 0 507.249 507.249" xml:space="preserve"><path d="M254.674.05C116.258.05 3.643 112.439 3.643 250.586c0 42.823 11.507 85.538 33.305 123.761L0 507.199l135.252-36.461c39.432 21.546 80.653 32.919 119.422 32.919 136.914 0 252.575-115.897 252.575-253.071C507.249 112.439 393.946.05 254.674.05zm0 461.64c-36.663 0-74.324-11.163-108.938-32.281l-4.365-2.677-82.516 21.244 22.478-79.83-2.946-4.591C56.941 330.173 45.61 291.11 45.61 250.586c0-115.007 93.788-208.569 209.064-208.569 116.132 0 210.608 93.562 210.608 208.569 0 116.4-94.477 211.104-210.608 211.104z"/><path d="M299.502 313.353a14.329 14.329 0 01-16.132 4.784c-14.814-5.204-65.293-26.322-92.957-79.603-2.736-5.296-1.998-11.6 1.863-16.073l19.909-23.032-22.855-53.105-15.553-.848c-.193-.017-.394-.017-.596-.017-2.552 0-5.002.898-6.925 2.577-6.387 5.548-17.584 17.022-20.849 31.559-5.128 22.83 3.374 50.831 23.921 78.848 13.539 18.466 54.75 74.651 132.868 96.734 18.608 5.263 35.412 3.257 49.882-6.001 9.292-5.943 15.99-15.738 18.373-26.876l2.51-11.709-52.937-24.173-20.522 26.935z"/><path d="M254.673 58.8c-106.026 0-192.277 86.033-192.277 191.79 0 37.292 10.408 73.224 30.116 103.894l7.034 10.937-16.627 59.023 61.138-15.738 10.441 6.379c31.954 19.506 66.602 29.814 100.176 29.814 106.874 0 193.821-87.166 193.821-194.308C448.494 144.833 361.547 58.8 254.673 58.8zm134.698 255.304l-2.51 11.717c-3.307 15.486-12.699 29.15-25.734 37.493-12.045 7.697-25.189 11.558-39.29 11.558-7.789 0-15.872-1.175-24.215-3.534-83.666-23.661-127.446-83.347-141.832-102.962-23.46-31.987-32.969-64.823-26.767-92.454 4.323-19.221 18.281-33.658 26.213-40.549 5.389-4.692 12.372-7.017 19.464-6.664l15.704.856c6.32.344 11.793 4.18 14.294 10.005l22.889 53.525c2.459 5.775 1.402 12.565-2.703 17.307L206.05 232.2c24.014 44.989 66.283 63.983 81.24 69.498l19.75-25.608c4.751-6.136 12.985-8.15 20.01-4.919l53.08 24.467c7.067 3.257 10.869 10.853 9.241 18.466z"/></svg>